<svg version="1.1" xmlns="http://www.w3.org/2000/svg" viewBox="0 0 834 783" width="834" height="783" filter="invert(93%) hue-rotate(180deg)">
  <!-- svg-source:excalidraw -->
  
  <defs>
    <style class="style-fonts">
      @font-face {
        font-family: "Virgil";
        src: url("https://excalidraw.com/Virgil.woff2");
      }
      @font-face {
        font-family: "Cascadia";
        src: url("https://excalidraw.com/Cascadia.woff2");
      }
    </style>
    
  </defs>
  <rect x="0" y="0" width="834" height="783" fill="#ffffff"></rect><g stroke-linecap="round" transform="translate(10 74) rotate(0 390.5 248)"><path d="M32 0 M32 0 C288.07 0.42, 545.37 0.71, 749 0 M32 0 C302.18 -0.78, 571.58 -0.54, 749 0 M749 0 C769.66 -1.01, 780.2 12.56, 781 32 M749 0 C771.89 -1.39, 778.77 12.74, 781 32 M781 32 C779.76 199.87, 780.5 365.49, 781 464 M781 32 C779.87 139.62, 780.68 245.87, 781 464 M781 464 C781.23 484.72, 768.91 496.41, 749 496 M781 464 C780.39 486.42, 771.76 498.07, 749 496 M749 496 C503.15 497.92, 257.69 498.65, 32 496 M749 496 C568.43 494.75, 388.99 494.64, 32 496 M32 496 C9 497.17, -0.71 484.42, 0 464 M32 496 C9.63 496.31, 1.87 483.85, 0 464 M0 464 C0.23 335.93, 0.12 210.46, 0 32 M0 464 C1.62 327.11, 1.3 191.49, 0 32 M0 32 C1.71 10.91, 8.77 1.91, 32 0 M0 32 C0.2 8.73, 11.6 1.34, 32 0" stroke="#1e1e1e" stroke-width="1" fill="none"></path></g><g transform="translate(271 43) rotate(0 110.07987976074219 12.5)"><text x="0" y="0" font-family="Virgil, Segoe UI Emoji" font-size="20px" fill="#1e1e1e" text-anchor="start" style="white-space: pre;" direction="ltr" dominant-baseline="text-before-edge">1: Terminal.app (PTTY)</text></g><g stroke-linecap="round" transform="translate(105 115) rotate(0 70 32.75)"><path d="M79.48 -0.32 C90.82 -0.21, 104.17 3.41, 113.54 6.88 C122.91 10.35, 131.28 15.62, 135.68 20.5 C140.08 25.39, 141.71 30.81, 139.95 36.17 C138.19 41.53, 132.31 48.13, 125.12 52.67 C117.92 57.2, 107.61 61.21, 96.75 63.39 C85.9 65.56, 71.58 66.61, 59.99 65.72 C48.39 64.83, 36.33 61.31, 27.18 58.04 C18.03 54.76, 9.58 50.96, 5.09 46.08 C0.6 41.2, -1.42 34.21, 0.24 28.78 C1.91 23.35, 7.89 17.77, 15.09 13.49 C22.28 9.21, 32.06 5.11, 43.4 3.09 C54.74 1.07, 76 1.58, 83.12 1.37 C90.24 1.17, 86.13 1.38, 86.11 1.87 M61.6 0.45 C72.46 -0.69, 86.52 1.61, 97.08 3.56 C107.65 5.51, 117.7 8.04, 124.97 12.14 C132.25 16.23, 139.08 22.52, 140.74 28.13 C142.4 33.74, 139.63 40.74, 134.93 45.78 C130.24 50.82, 122.04 55.16, 112.56 58.39 C103.08 61.62, 89.63 64.43, 78.08 65.16 C66.52 65.88, 54.07 65.04, 43.21 62.74 C32.34 60.45, 19.91 55.61, 12.89 51.37 C5.88 47.13, 2.4 42.58, 1.1 37.3 C-0.19 32.02, 0.48 24.73, 5.13 19.69 C9.78 14.66, 19.83 10.23, 29.01 7.1 C38.18 3.98, 55.05 1.87, 60.19 0.93 C65.33 -0.02, 59.45 1.15, 59.83 1.43" stroke="#f08c00" stroke-width="1" fill="none"></path></g><g transform="translate(151.3725509517073 135.09225291614058) rotate(0 23.629974365234375 12.5)"><text x="23.629974365234375" y="0" font-family="Virgil, Segoe UI Emoji" font-size="20px" fill="#f08c00" text-anchor="middle" style="white-space: pre;" direction="ltr" dominant-baseline="text-before-edge">stdin</text></g><g stroke-linecap="round" transform="translate(101 194) rotate(0 70 32.75)"><path d="M67.33 -0.81 C78.43 -1.35, 93.49 1.54, 103.87 4.25 C114.24 6.95, 123.39 10.74, 129.57 15.4 C135.75 20.06, 140.73 26.64, 140.95 32.22 C141.17 37.79, 136.78 44.06, 130.87 48.87 C124.97 53.67, 115.33 58.38, 105.52 61.04 C95.72 63.71, 83.47 64.79, 72.06 64.87 C60.64 64.96, 47.35 64.12, 37.05 61.56 C26.75 58.99, 16.38 54.13, 10.26 49.48 C4.15 44.83, 0.52 39.13, 0.35 33.66 C0.17 28.19, 3.68 21.4, 9.22 16.65 C14.76 11.89, 23.18 7.83, 33.58 5.13 C43.98 2.44, 64.53 1.28, 71.64 0.5 C78.74 -0.28, 76.09 -0.16, 76.21 0.46 M89.59 -0.12 C100.27 0.53, 110.73 4.78, 118.77 8.7 C126.8 12.63, 134.48 18.08, 137.79 23.44 C141.1 28.79, 141.95 35.16, 138.63 40.84 C135.31 46.52, 126.27 53.4, 117.89 57.53 C109.5 61.66, 99.61 64.69, 88.34 65.62 C77.07 66.54, 61.85 64.88, 50.26 63.07 C38.67 61.25, 26.68 58.46, 18.79 54.72 C10.9 50.99, 5.57 45.62, 2.93 40.65 C0.3 35.67, -0.01 30.2, 2.96 24.88 C5.93 19.56, 12.33 12.55, 20.75 8.74 C29.16 4.94, 42.17 3.27, 53.45 2.02 C64.73 0.78, 82.57 1.18, 88.43 1.27 C94.29 1.36, 88.91 2.16, 88.61 2.58" stroke="#f08c00" stroke-width="1" fill="none"></path></g><g transform="translate(137.36256407426595 214.09225291614058) rotate(0 33.63996124267578 12.5)"><text x="33.63996124267578" y="0" font-family="Virgil, Segoe UI Emoji" font-size="20px" fill="#f08c00" text-anchor="middle" style="white-space: pre;" direction="ltr" dominant-baseline="text-before-edge">stdout</text></g><g stroke-linecap="round"><g transform="translate(318 141.5) rotate(0 -32.110065968830725 0.657432241118272)"><path d="M1.11 -0.63 C-9.73 -0.47, -54.44 0.5, -65.33 0.79 M0.23 1.65 C-10.2 1.97, -52.19 1.85, -63.02 1.94" stroke="#f08c00" stroke-width="1" fill="none"></path></g><g transform="translate(318 141.5) rotate(0 -32.110065968830725 0.657432241118272)"><path d="M-35.91 -9.69 C-43.79 -4.72, -50.98 -0.8, -61.82 1.25 M-35.78 -7.63 C-40.15 -5.23, -46.98 -3.39, -63.7 1.07" stroke="#f08c00" stroke-width="1" fill="none"></path></g><g transform="translate(318 141.5) rotate(0 -32.110065968830725 0.657432241118272)"><path d="M-35.86 10.83 C-43.72 10.18, -50.92 8.49, -61.82 1.25 M-35.73 12.9 C-40.26 10.93, -47.1 8.4, -63.7 1.07" stroke="#f08c00" stroke-width="1" fill="none"></path></g></g><mask></mask><g transform="translate(345 126.5) rotate(0 204.11976623535156 12.5)"><text x="0" y="0" font-family="Virgil, Segoe UI Emoji" font-size="20px" fill="#f08c00" text-anchor="start" style="white-space: pre;" direction="ltr" dominant-baseline="text-before-edge">Ashir types stuff and provides it to this</text></g><g stroke-linecap="round"><g transform="translate(254 222.5) rotate(0 35.859618959804095 -0.3976316753442859)"><path d="M0.12 0.43 C12.37 0.32, 60.92 0.66, 73 0.38 M-1.28 -0.38 C10.94 -0.32, 60.34 -1.3, 72.58 -1.29" stroke="#f08c00" stroke-width="1" fill="none"></path></g><g transform="translate(254 222.5) rotate(0 35.859618959804095 -0.3976316753442859)"><path d="M45.22 10.94 C53.14 7.49, 57.72 3.94, 71.55 0.12 M44.67 9.81 C53.06 7.03, 62.42 3.16, 73 -0.76" stroke="#f08c00" stroke-width="1" fill="none"></path></g><g transform="translate(254 222.5) rotate(0 35.859618959804095 -0.3976316753442859)"><path d="M45 -9.58 C53.17 -7.71, 57.8 -5.94, 71.55 0.12 M44.45 -10.71 C52.75 -6.79, 62.19 -3.95, 73 -0.76" stroke="#f08c00" stroke-width="1" fill="none"></path></g></g><mask></mask><g transform="translate(351.5 210) rotate(0 207.03977966308594 25)"><text x="0" y="0" font-family="Virgil, Segoe UI Emoji" font-size="20px" fill="#f08c00" text-anchor="start" style="white-space: pre;" direction="ltr" dominant-baseline="text-before-edge">The "program" does "stuff" and sends the</text><text x="0" y="25" font-family="Virgil, Segoe UI Emoji" font-size="20px" fill="#f08c00" text-anchor="start" style="white-space: pre;" direction="ltr" dominant-baseline="text-before-edge">"output" / "results" to Ashir</text></g><g transform="translate(299.5 10) rotate(0 84.84991455078125 12.5)"><text x="0" y="0" font-family="Virgil, Segoe UI Emoji" font-size="20px" fill="#f08c00" text-anchor="start" style="white-space: pre;" direction="ltr" dominant-baseline="text-before-edge">POSIX compliance</text></g><g stroke-linecap="round" transform="translate(138.5 324) rotate(0 263.5 75.25)"><path d="M32 0 M32 0 C206.59 -2.61, 383.57 -1.67, 495 0 M32 0 C192.84 -0.67, 352.99 0, 495 0 M495 0 C517.17 -0.13, 528.43 11.34, 527 32 M495 0 C516.66 1.02, 528.44 12.04, 527 32 M527 32 C526.26 58.99, 528.74 87.63, 527 118.5 M527 32 C526.48 65.68, 526.2 97.58, 527 118.5 M527 118.5 C527.81 141.11, 516.94 150.61, 495 150.5 M527 118.5 C528.65 139.18, 516.14 151.04, 495 150.5 M495 150.5 C310.27 151.04, 126.3 150.02, 32 150.5 M495 150.5 C392.34 150.44, 289.53 150.4, 32 150.5 M32 150.5 C9.53 149.97, -1.61 138.58, 0 118.5 M32 150.5 C10.61 149.48, 1.46 141.94, 0 118.5 M0 118.5 C-2.28 94.89, -1.04 71.87, 0 32 M0 118.5 C0.81 86.61, 1.2 55.45, 0 32 M0 32 C-1.85 10.6, 8.69 1.25, 32 0 M0 32 C0.73 8.68, 12.34 -0.23, 32 0" stroke="#1971c2" stroke-width="1" fill="none"></path></g><g transform="translate(328.10008239746094 386.75) rotate(0 73.89991760253906 12.5)"><text x="73.89991760253906" y="0" font-family="Virgil, Segoe UI Emoji" font-size="20px" fill="#1971c2" text-anchor="middle" style="white-space: pre;" direction="ltr" dominant-baseline="text-before-edge">1: "zsh" process</text></g><g stroke-linecap="round" transform="translate(18.5 613) rotate(0 166.5 80)"><path d="M32 0 M32 0 C106.31 -1.24, 177.5 -2.89, 301 0 M32 0 C128.22 -2.08, 225.91 -0.79, 301 0 M301 0 C322.57 -0.71, 334.58 12.21, 333 32 M301 0 C322.84 0.31, 331.63 11.22, 333 32 M333 32 C333 70, 331.63 105.48, 333 128 M333 32 C333.1 61.73, 332.61 92.71, 333 128 M333 128 C333.78 150.59, 320.96 161.02, 301 160 M333 128 C334.69 150.6, 323.48 157.79, 301 160 M301 160 C199.89 161.17, 98.61 160.37, 32 160 M301 160 C200.87 159.04, 101.72 158.9, 32 160 M32 160 C8.8 158.2, -0.09 150.81, 0 128 M32 160 C9.97 161.68, -1.75 151.34, 0 128 M0 128 C1.57 92.56, -1.68 60.3, 0 32 M0 128 C0.87 94.15, 1.77 61.63, 0 32 M0 32 C0.42 8.81, 9.3 1.13, 32 0 M0 32 C2.3 10.91, 9.65 1.76, 32 0" stroke="#f08c00" stroke-width="1" fill="none"></path></g><g transform="translate(64.39012908935547 618) rotate(0 120.60987091064453 75)"><text x="120.60987091064453" y="0" font-family="Virgil, Segoe UI Emoji" font-size="20px" fill="#f08c00" text-anchor="middle" style="white-space: pre;" direction="ltr" dominant-baseline="text-before-edge">Every POSIX Process</text><text x="120.60987091064453" y="25" font-family="Virgil, Segoe UI Emoji" font-size="20px" fill="#f08c00" text-anchor="middle" style="white-space: pre;" direction="ltr" dominant-baseline="text-before-edge">has a:</text><text x="120.60987091064453" y="50" font-family="Virgil, Segoe UI Emoji" font-size="20px" fill="#f08c00" text-anchor="middle" style="white-space: pre;" direction="ltr" dominant-baseline="text-before-edge"></text><text x="120.60987091064453" y="75" font-family="Virgil, Segoe UI Emoji" font-size="20px" fill="#f08c00" text-anchor="middle" style="white-space: pre;" direction="ltr" dominant-baseline="text-before-edge">stdin, </text><text x="120.60987091064453" y="100" font-family="Virgil, Segoe UI Emoji" font-size="20px" fill="#f08c00" text-anchor="middle" style="white-space: pre;" direction="ltr" dominant-baseline="text-before-edge">stdout,</text><text x="120.60987091064453" y="125" font-family="Virgil, Segoe UI Emoji" font-size="20px" fill="#f08c00" text-anchor="middle" style="white-space: pre;" direction="ltr" dominant-baseline="text-before-edge">current working directory</text></g><g stroke-linecap="round" transform="translate(504.5 610.5) rotate(0 159.75 73.5)"><path d="M32 0 M32 0 C127.22 2.73, 221.74 0.51, 287.5 0 M32 0 C114.63 0.62, 198.54 1.29, 287.5 0 M287.5 0 C310.64 1.91, 317.93 10.96, 319.5 32 M287.5 0 C308.67 1.23, 321.59 12.09, 319.5 32 M319.5 32 C320.43 56.79, 319.88 77.33, 319.5 115 M319.5 32 C318.77 53.44, 318.94 72.67, 319.5 115 M319.5 115 C318 136.12, 310.53 146.01, 287.5 147 M319.5 115 C319.22 137.64, 308.38 148.43, 287.5 147 M287.5 147 C194.62 144.53, 101.75 146.19, 32 147 M287.5 147 C199.46 147.44, 111.13 146.98, 32 147 M32 147 C10.8 145.66, 0.19 137.94, 0 115 M32 147 C9.41 147.02, -1.26 134.6, 0 115 M0 115 C-0.15 83.26, -0.82 51.6, 0 32 M0 115 C0.21 93.55, -1.27 73.51, 0 32 M0 32 C1.77 11.49, 10.23 -0.91, 32 0 M0 32 C-1.11 10.52, 9.54 0.95, 32 0" stroke="#1971c2" stroke-width="1" fill="none"></path></g><g transform="translate(608.5100631713867 671.5) rotate(0 55.73993682861328 12.5)"><text x="55.73993682861328" y="0" font-family="Virgil, Segoe UI Emoji" font-size="20px" fill="#1971c2" text-anchor="middle" style="white-space: pre;" direction="ltr" dominant-baseline="text-before-edge">"ls" process</text></g><g transform="translate(353.5 158.5) rotate(0 59.36994171142578 12.5)"><text x="0" y="0" font-family="Virgil, Segoe UI Emoji" font-size="20px" fill="#2f9e44" text-anchor="start" style="white-space: pre;" direction="ltr" dominant-baseline="text-before-edge">&gt; ls &lt;enter&gt;</text></g><g transform="translate(565 267.5) rotate(0 99.93988800048828 25)"><text x="0" y="0" font-family="Virgil, Segoe UI Emoji" font-size="20px" fill="#e03131" text-anchor="start" style="white-space: pre;" direction="ltr" dominant-baseline="text-before-edge">&gt; files &amp; folders in </text><text x="0" y="25" font-family="Virgil, Segoe UI Emoji" font-size="20px" fill="#e03131" text-anchor="start" style="white-space: pre;" direction="ltr" dominant-baseline="text-before-edge">  current working dir</text></g><g stroke-linecap="round"><g transform="translate(410.5 193.5) rotate(0 19.307769194850664 63.526804638048645)"><path d="M-0.21 0.31 C6.02 21.19, 31.68 105.21, 38.3 126.4 M-1.77 -0.57 C4.72 20.97, 33.63 106.64, 40.39 127.62" stroke="#2f9e44" stroke-width="1" fill="none"></path></g><g transform="translate(410.5 193.5) rotate(0 19.307769194850664 63.526804638048645)"><path d="M22.32 102.08 C28.04 113.02, 36.8 122.17, 38.72 127.66 M22.27 103.36 C29.59 113.66, 35.43 122.28, 39.86 127.75" stroke="#2f9e44" stroke-width="1" fill="none"></path></g><g transform="translate(410.5 193.5) rotate(0 19.307769194850664 63.526804638048645)"><path d="M41.81 95.64 C40.23 108.98, 41.65 120.56, 38.72 127.66 M41.76 96.92 C41.34 109.73, 39.5 120.89, 39.86 127.75" stroke="#2f9e44" stroke-width="1" fill="none"></path></g></g><mask></mask><g stroke-linecap="round"><g transform="translate(494 471) rotate(0 45.40505906656739 68.39648018382024)"><path d="M-0.74 0.79 C14.54 23.6, 76.44 114.32, 91.55 136.63 M1.07 0.16 C16.31 22.69, 76.59 112.55, 91.23 135.1" stroke="#2f9e44" stroke-width="1" fill="none"></path></g><g transform="translate(494 471) rotate(0 45.40505906656739 68.39648018382024)"><path d="M68.44 119.25 C75.96 121.83, 79.62 127.13, 92.45 133.94 M66.46 116.93 C73.38 122.67, 82.1 128.27, 90.32 135.33" stroke="#2f9e44" stroke-width="1" fill="none"></path></g><g transform="translate(494 471) rotate(0 45.40505906656739 68.39648018382024)"><path d="M85.55 107.93 C88.09 113.68, 86.78 122.27, 92.45 133.94 M83.58 105.6 C85.32 114.73, 88.97 123.68, 90.32 135.33" stroke="#2f9e44" stroke-width="1" fill="none"></path></g></g><mask></mask><g stroke-linecap="round"><g transform="translate(703.2471392159025 608.5) rotate(0 -50.36164829741699 -64.81343021832868)"><path d="M-0.21 -0.42 C-16.99 -21.5, -83.04 -105.85, -99.85 -127.23 M-1.78 -1.68 C-18.74 -23.08, -84.37 -108.16, -100.51 -129.21" stroke="#2f9e44" stroke-width="1" fill="none"></path></g><g transform="translate(703.2471392159025 608.5) rotate(0 -50.36164829741699 -64.81343021832868)"><path d="M-75.88 -112.21 C-83.91 -120.25, -95.62 -123.88, -98.99 -131.12 M-74.24 -112.83 C-85.23 -120.01, -94.12 -125.12, -99.99 -129.56" stroke="#2f9e44" stroke-width="1" fill="none"></path></g><g transform="translate(703.2471392159025 608.5) rotate(0 -50.36164829741699 -64.81343021832868)"><path d="M-92.14 -99.69 C-94.13 -112.3, -99.88 -120.51, -98.99 -131.12 M-90.5 -100.31 C-95.3 -112.35, -98.02 -122.21, -99.99 -129.56" stroke="#2f9e44" stroke-width="1" fill="none"></path></g></g><mask></mask><g stroke-linecap="round"><g transform="translate(537.5 318) rotate(0 -11.19144186004064 -24.413728967308998)"><path d="M-0.81 1.17 C-4.48 -7.32, -18.9 -41.48, -22.43 -49.99 M0.96 0.73 C-2.82 -7.63, -19.43 -40.23, -23.34 -48.45" stroke="#2f9e44" stroke-width="1" fill="none"></path></g><g transform="translate(537.5 318) rotate(0 -11.19144186004064 -24.413728967308998)"><path d="M-1.58 -29.39 C-8.88 -33.79, -14 -39.53, -23.09 -48.73 M-3.68 -30.06 C-8.43 -35.38, -15.13 -40.31, -23.9 -49.38" stroke="#2f9e44" stroke-width="1" fill="none"></path></g><g transform="translate(537.5 318) rotate(0 -11.19144186004064 -24.413728967308998)"><path d="M-18.39 -21.09 C-21.33 -27.55, -22.02 -35.49, -23.09 -48.73 M-20.49 -21.76 C-20.61 -29.53, -22.65 -36.76, -23.9 -49.38" stroke="#2f9e44" stroke-width="1" fill="none"></path></g></g><mask></mask></svg>